<mxfile host="app.diagrams.net" modified="2021-02-26T20:07:37.066Z" agent="5.0 (Linux; U; Android 10; zh-CN; Mi 10 Build/QKQ1.191117.002) AppleWebKit/537.36 (KHTML, like Gecko) Version/4.0 Chrome/78.0.3904.108 Quark/4.6.6.164 Mobile Safari/537.36" etag="tLWIzplkM9pIcdjszC9r" version="14.4.3" type="github">
  <diagram id="d-aBB_dD7OcRrB6fWeEe" name="Page-1">
    <mxGraphModel dx="718" dy="1186" grid="1" gridSize="10" guides="1" tooltips="1" connect="1" arrows="1" fold="1" page="1" pageScale="1" pageWidth="827" pageHeight="1169" math="0" shadow="0">
      <root>
        <mxCell id="0" />
        <mxCell id="1" parent="0" />
        <mxCell id="cL4GXSt_CfoXQGxUWIga-3" value="" style="whiteSpace=wrap;html=1;" parent="1" vertex="1">
          <mxGeometry x="350" y="570" width="120" height="60" as="geometry" />
        </mxCell>
      </root>
    </mxGraphModel>
  </diagram>
</mxfile>
